<?xml version="1.0" encoding="utf-8"?>
<!-- Generator: Adobe Illustrator 17.0.0, SVG Export Plug-In . SVG Version: 6.00 Build 0)  -->
<!DOCTYPE svg PUBLIC "-//W3C//DTD SVG 1.1//EN" "http://www.w3.org/Graphics/SVG/1.1/DTD/svg11.dtd">
<svg version="1.1" id="Layer_1" xmlns="http://www.w3.org/2000/svg" xmlns:xlink="http://www.w3.org/1999/xlink" x="0px" y="0px"
	 width="1400px" height="800px" viewBox="0 0 1400 800" enable-background="new 0 0 1400 800" xml:space="preserve">
<g>
	<path opacity="0.3" fill="#FFFFFF" stroke="#000000" stroke-miterlimit="10" d="M236.91,763c0,6.627-5.373,12-12,12h-56.814
		c-6.627,0-12-5.373-12-12v-61.141c0-6.627,5.373-12,12-12h56.814c6.627,0,12,5.373,12,12V763z"/>
	<text transform="matrix(1 0 0 1 179.072 754.9678)" opacity="0.5" font-family="'Stencil'" font-size="60">z</text>
</g>
<g>
	<g>
		<path opacity="0.3" fill="#FFFFFF" stroke="#000000" stroke-miterlimit="10" d="M319.897,536.1c0,6.627-5.373,12-12,12h-56.814
			c-6.627,0-12-5.373-12-12v-61.141c0-6.627,5.373-12,12-12h56.814c6.627,0,12,5.373,12,12V536.1z"/>
	</g>
	<text transform="matrix(1 0 0 1 260.374 526.087)" opacity="0.5" font-family="'Stencil'" font-size="60">x</text>
</g>
<g>
	<path opacity="0.3" fill="#FFFFFF" stroke="#000000" stroke-miterlimit="10" d="M383.907,287.197c0,6.627-5.373,12-12,12h-56.814
		c-6.627,0-12-5.373-12-12v-61.141c0-6.627,5.373-12,12-12h56.814c6.627,0,12,5.373,12,12V287.197z"/>
	<text transform="matrix(1 0 0 1 327.877 278.0801)" opacity="0.5" font-family="'Stencil'" font-size="60">d</text>
</g>
<g>
	<path opacity="0.3" fill="#FFFFFF" stroke="#000000" stroke-miterlimit="10" d="M539.215,398.339c0,6.627-5.373,12-12,12h-56.814
		c-6.627,0-12-5.373-12-12v-61.141c0-6.627,5.373-12,12-12h56.814c6.627,0,12,5.373,12,12V398.339z"/>
	<text transform="matrix(1 0 0 1 483.6762 397.571)" opacity="0.5" font-family="'Stencil'" font-size="60">v</text>
</g>
<g>
	<path opacity="0.3" fill="#FFFFFF" stroke="#000000" stroke-miterlimit="10" d="M797.916,398.339c0,6.627-5.373,12-12,12h-56.814
		c-6.627,0-12-5.373-12-12v-61.141c0-6.627,5.373-12,12-12h56.814c6.627,0,12,5.373,12,12V398.339z"/>
	<text transform="matrix(1 0 0 1 737.0889 391.271)" opacity="0.5" font-family="'Stencil'" font-size="60">b</text>
</g>
<g>
	<path opacity="0.3" fill="#FFFFFF" stroke="#000000" stroke-miterlimit="10" d="M966.552,291.429c0,6.627-5.373,12-12,12h-56.814
		c-6.627,0-12-5.373-12-12v-61.141c0-6.627,5.373-12,12-12h56.814c6.627,0,12,5.373,12,12V291.429z"/>
	<text transform="matrix(1 0 0 1 905.0801 278.08)" opacity="0.5" font-family="'Stencil'" font-size="60">h</text>
</g>
<g>
	<g>
		<path opacity="0.3" fill="#FFFFFF" stroke="#000000" stroke-miterlimit="10" d="M608.407,604.339c0,6.627-5.373,12-12,12h-56.814
			c-6.627,0-12-5.373-12-12v-61.141c0-6.627,5.373-12,12-12h56.814c6.627,0,12,5.373,12,12V604.339z"/>
	</g>
	<text transform="matrix(1 0 0 1 548.098 599.429)" opacity="0.5" font-family="'Stencil'" font-size="60">c</text>
</g>
<g>
	<path opacity="0.3" fill="#FFFFFF" stroke="#000000" stroke-miterlimit="10" d="M1119.949,571.85c0,6.627-5.373,12-12,12h-56.814
		c-6.627,0-12-5.373-12-12v-61.141c0-6.627,5.373-12,12-12h56.814c6.627,0,12,5.373,12,12V571.85z"/>
	<text transform="matrix(1 0 0 1 1065.5723 566.202)" opacity="0.5" font-family="'Stencil'" font-size="60">j</text>
</g>
<g>
	<path opacity="0.3" fill="#FFFFFF" stroke="#000000" stroke-miterlimit="10" d="M1201.512,759.516c0,6.627-5.373,12-12,12h-56.814
		c-6.627,0-12-5.373-12-12v-61.141c0-6.627,5.373-12,12-12h56.814c6.627,0,12,5.373,12,12V759.516z"/>
	<text transform="matrix(1 0 0 1 1141.9449 754.1027)" opacity="0.5" font-family="'Stencil'" font-size="60">n</text>
</g>
<g>
	<path opacity="0.3" fill="#FFFFFF" stroke="#000000" stroke-miterlimit="10" d="M802.966,748.979c0,6.627-5.373,12-12,12h-56.814
		c-6.627,0-12-5.373-12-12v-61.141c0-6.627,5.373-12,12-12h56.814c6.627,0,12,5.373,12,12V748.979z"/>
	<text transform="matrix(1 0 0 1 733.0302 725.8483)" opacity="0.5" font-family="'Stencil'" font-size="21">space</text>
</g>
</svg>
